<?xml version="1.0" encoding="utf-8"?>
<!-- Generator: Adobe Illustrator 18.1.0, SVG Export Plug-In . SVG Version: 6.00 Build 0)  -->
<svg version="1.1" id="Capa_1" xmlns="http://www.w3.org/2000/svg" xmlns:xlink="http://www.w3.org/1999/xlink" x="0px" y="0px"
	 width="1000px" height="1000px" viewBox="0 0 1000 1000" enable-background="new 0 0 1000 1000" xml:space="preserve">
<g>
	<path d="M23.9,60.9C13.6,64.2,6.5,73.8,6.5,84.7v421.4c0,14.1,11.5,25,24.9,25c1.7,0,3.4-0.2,5.1-0.5
		c39.4-8.2,98.7-13.4,165.1-13.4c75.4,0,141.7,6.8,180.1,17V61.7c-29.4-9.5-99-28.7-180.1-28.7C122.6,33,54.7,51.2,23.9,60.9z"/>
	<path d="M687.7,313.8C712.9,306,739,302,765.1,302h0h0c7.2,0,14.5,0.3,21.7,0.9V84.7c0-10.9-7.1-20.5-17.4-23.8
		C738.7,51.2,670.7,33,591.7,33c-81.1,0-150.7,19.2-180.1,28.7v472.5c23.2-6.2,56.6-11.1,96-14c4.5-27.2,13.4-53.8,26.7-78.9
		C566.7,379.7,621.2,334.4,687.7,313.8z"/>
	<path d="M888.3,792.2c-14.6,7.8-30.1,14.3-46.3,19.4c-16.1,5-32.6,8.4-49.2,10.2l39.6,127.7c4.1,13.2,18.1,20.6,31.3,16.5
		l47.8-14.8c13.2-4.1,20.6-18.1,16.5-31.3L888.3,792.2z"/>
	<path d="M985.1,494.4c-18.2-58.8-58.3-107-112.8-135.7c-16.8-8.9-34.4-15.5-52.3-20c-5.5-1.4-11-2.5-16.6-3.4
		c-5.5-0.9-11-1.7-16.6-2.2c-7.2-0.7-14.5-1.1-21.7-1.1c-22.9,0-46,3.5-68.5,10.4c-58.8,18.2-107,58.3-135.7,112.8
		c-10.6,20.2-18.1,41.4-22.4,63.1c-1.1,5.5-2,11.1-2.7,16.7c-0.7,5.5-1.1,11.1-1.4,16.7c-1.2,26.4,2.1,53.2,10.2,79.2
		c18.2,58.8,58.3,107,112.8,135.7c33.6,17.7,70.2,26.7,107.2,26.7c6.4,0,12.8-0.3,19.2-0.8c16.6-1.4,33.1-4.6,49.4-9.6
		c16.3-5,31.7-11.8,46.2-20c37.8-21.5,68.8-53.4,89.6-92.8C997.5,615.6,1003.3,553.2,985.1,494.4z M898,632.8
		c-10.9,20.6-25.8,37.6-43.4,50.7c-26,19.3-57.7,29.7-90,29.7c-1.8,0-3.6,0-5.5-0.1c-21.8-0.8-43.8-6.4-64.4-17.2
		c-54.9-28.9-84.5-87.1-79.9-145.3c0.4-5.5,1.2-11,2.2-16.5c1.1-5.5,2.4-11,4.2-16.5c2.7-8.5,6.1-16.9,10.4-25
		c26.9-51.1,79.3-80.4,133.5-80.4c7.2,0,14.5,0.5,21.7,1.6c5.5,0.8,11.1,2,16.6,3.4c5.6,1.5,11.1,3.3,16.6,5.4
		c5.1,2,10.1,4.3,15,6.9C908.4,468.1,936.7,559.4,898,632.8z"/>
</g>
</svg>
