<?xml version="1.0" encoding="utf-8"?>
<!-- Generator: Adobe Illustrator 15.0.2, SVG Export Plug-In  -->
<!DOCTYPE svg PUBLIC "-//W3C//DTD SVG 1.1//EN" "http://www.w3.org/Graphics/SVG/1.1/DTD/svg11.dtd" [
	<!ENTITY ns_flows "http://ns.adobe.com/Flows/1.0/">
]>
<svg version="1.1"
	 xmlns="http://www.w3.org/2000/svg" xmlns:xlink="http://www.w3.org/1999/xlink" xmlns:a="http://ns.adobe.com/AdobeSVGViewerExtensions/3.0/"
	 x="0px" y="0px" width="142px" height="142px" viewBox="-0.142 -9 142 142"
	 overflow="visible" enable-background="new -0.142 -9 142 142" xml:space="preserve">
<defs>
</defs>
<path fill="#1E1E1C" d="M139.305,79.469c-7.445-2.08-5.126-13.78-5.126-13.78l7.271,0.052l-0.079-10.411l-18.508-13.882L122.869,33
	h3.857l0.072-9.472L108.313,0H27.359L3.702,31.994c0,0-0.001,0.088-0.001,0.093C1.423,34.932,0,38.954,0,43.383
	c0,8.637,5.39,15.655,12.038,15.655c0.095,0,0.187-0.007,0.281-0.01c0.267,0.019,0.42,0.022,0.42,0.022l12.816-0.49
	c-4.43,2.449-7.562,8.41-7.562,15.392c0,2.311,0.344,4.509,0.963,6.508L7.137,94.367c-2.96,3.021-4.887,7.855-4.887,13.324
	c0,9.162,5.39,16.59,12.038,16.59c0.088,0,0.173-0.016,0.26-0.018l109.34-1.248l-0.08-10.544
	c-9.192-1.158-6.275-14.146-6.275-14.146l6.169-0.044l-0.05-6.74l15.743-0.104L139.305,79.469z"/>
<path fill="#FFFFFF" d="M13.858,33v-0.094c0-0.015-0.224-0.034-0.371-0.034c-3.396,0-6.115,4.279-6.115,9.56
	c0,5.278,2.704,9.559,6.1,9.559c0.147,0,0.387-0.019,0.387-0.034V52h104V33H13.858z"/>
<path fill="#FFFFFF" d="M16.858,99v-0.874c-3,0.287-5.248,4.438-5.248,9.532c0,5.095,2.248,9.245,5.248,9.531V118h95V99H16.858z"/>
<path fill="#FFFFFF" d="M31.858,67v-0.362c-3,0.287-5.248,4.438-5.248,9.532s2.248,9.244,5.248,9.531V86h97V67H31.858z"/>
<line fill="none" stroke="#1E1E1C" stroke-miterlimit="10" x1="6.858" y1="42.5" x2="118.858" y2="42.5"/>
<line fill="none" stroke="#1E1E1C" stroke-miterlimit="10" x1="7.858" y1="35.5" x2="119.858" y2="35.5"/>
<line fill="none" stroke="#1E1E1C" stroke-miterlimit="10" x1="6.858" y1="38.5" x2="118.858" y2="38.5"/>
<line fill="none" stroke="#1E1E1C" stroke-miterlimit="10" x1="6.858" y1="46.5" x2="118.858" y2="46.5"/>
<line fill="none" stroke="#1E1E1C" stroke-miterlimit="10" x1="5.858" y1="49.5" x2="118.858" y2="49.5"/>
<line fill="none" stroke="#1E1E1C" stroke-miterlimit="10" x1="23.858" y1="75.5" x2="129.858" y2="75.5"/>
<line fill="none" stroke="#1E1E1C" stroke-miterlimit="10" x1="24.858" y1="69.5" x2="132.858" y2="69.5"/>
<line fill="none" stroke="#1E1E1C" stroke-miterlimit="10" x1="23.858" y1="72.5" x2="129.858" y2="72.5"/>
<line fill="none" stroke="#1E1E1C" stroke-miterlimit="10" x1="23.858" y1="79.5" x2="129.858" y2="79.5"/>
<line fill="none" stroke="#1E1E1C" stroke-miterlimit="10" x1="22.858" y1="83.5" x2="129.858" y2="83.5"/>
<line fill="none" stroke="#1E1E1C" stroke-miterlimit="10" x1="11.858" y1="107.5" x2="112.858" y2="107.5"/>
<line fill="none" stroke="#1E1E1C" stroke-miterlimit="10" x1="12.858" y1="101.5" x2="115.858" y2="101.5"/>
<line fill="none" stroke="#1E1E1C" stroke-miterlimit="10" x1="11.858" y1="104.5" x2="112.858" y2="104.5"/>
<line fill="none" stroke="#1E1E1C" stroke-miterlimit="10" x1="11.858" y1="110.5" x2="112.858" y2="110.5"/>
<line fill="none" stroke="#1E1E1C" stroke-miterlimit="10" x1="10.858" y1="113.5" x2="112.858" y2="113.5"/>
</svg>
